<mxfile host="app.diagrams.net" modified="2021-04-13T19:59:44.200Z" agent="5.0 (Windows)" etag="JjesYLHTQHt5AgFvvPp5" version="14.6.0" type="github">
  <diagram name="Page-1" id="aaaa8250-4180-3840-79b5-4cada1eebb92">
    <mxGraphModel dx="1427" dy="2988" grid="1" gridSize="10" guides="1" tooltips="1" connect="1" arrows="1" fold="1" page="1" pageScale="1" pageWidth="850" pageHeight="1100" background="#ffffff" math="0" shadow="1">
      <root>
        <mxCell id="0" />
        <mxCell id="1" parent="0" />
        <mxCell id="34cOvowa2TqDfqdvLT65-6" value="" style="whiteSpace=wrap;html=1;aspect=fixed;fillColor=#f5f5f5;strokeColor=#666666;fontColor=#333333;" vertex="1" parent="1">
          <mxGeometry x="805" y="-2090" width="840" height="840" as="geometry" />
        </mxCell>
        <mxCell id="34cOvowa2TqDfqdvLT65-15" value="&lt;font style=&quot;font-size: 21px&quot;&gt;&lt;b&gt;&lt;font style=&quot;font-size: 21px&quot;&gt;Vmware Vsphere&lt;/font&gt;&lt;/b&gt;&lt;/font&gt;" style="text;html=1;strokeColor=none;fillColor=none;align=center;verticalAlign=middle;whiteSpace=wrap;rounded=0;" vertex="1" parent="1">
          <mxGeometry x="1060" y="-2050" width="250" height="40" as="geometry" />
        </mxCell>
        <mxCell id="34cOvowa2TqDfqdvLT65-41" value="&lt;b&gt;&lt;font style=&quot;font-size: 16px&quot;&gt;UTILITY&lt;/font&gt;&lt;/b&gt;" style="shape=cube;whiteSpace=wrap;html=1;boundedLbl=1;backgroundOutline=1;darkOpacity=0.05;darkOpacity2=0.1;" vertex="1" parent="1">
          <mxGeometry x="910" y="-1900" width="130" height="190" as="geometry" />
        </mxCell>
        <mxCell id="34cOvowa2TqDfqdvLT65-47" value="&lt;b&gt;&lt;font style=&quot;font-size: 19px&quot;&gt;Boostrap&lt;/font&gt;&lt;/b&gt;" style="shape=cube;whiteSpace=wrap;html=1;boundedLbl=1;backgroundOutline=1;darkOpacity=0.05;darkOpacity2=0.1;" vertex="1" parent="1">
          <mxGeometry x="1290" y="-1900" width="130" height="190" as="geometry" />
        </mxCell>
        <mxCell id="34cOvowa2TqDfqdvLT65-50" value="" style="group" vertex="1" connectable="0" parent="1">
          <mxGeometry x="867" y="-1580" width="230" height="270" as="geometry" />
        </mxCell>
        <mxCell id="34cOvowa2TqDfqdvLT65-44" value="" style="shape=cube;whiteSpace=wrap;html=1;boundedLbl=1;backgroundOutline=1;darkOpacity=0.05;darkOpacity2=0.1;" vertex="1" parent="34cOvowa2TqDfqdvLT65-50">
          <mxGeometry width="130" height="190" as="geometry" />
        </mxCell>
        <mxCell id="34cOvowa2TqDfqdvLT65-45" value="" style="shape=cube;whiteSpace=wrap;html=1;boundedLbl=1;backgroundOutline=1;darkOpacity=0.05;darkOpacity2=0.1;" vertex="1" parent="34cOvowa2TqDfqdvLT65-50">
          <mxGeometry x="50" y="40" width="130" height="190" as="geometry" />
        </mxCell>
        <mxCell id="34cOvowa2TqDfqdvLT65-46" value="&lt;font style=&quot;font-size: 16px&quot;&gt;&lt;b&gt;MASTER &lt;br&gt;&lt;/b&gt;&lt;/font&gt;" style="shape=cube;whiteSpace=wrap;html=1;boundedLbl=1;backgroundOutline=1;darkOpacity=0.05;darkOpacity2=0.1;" vertex="1" parent="34cOvowa2TqDfqdvLT65-50">
          <mxGeometry x="100" y="80" width="130" height="190" as="geometry" />
        </mxCell>
        <mxCell id="34cOvowa2TqDfqdvLT65-57" value="" style="group" vertex="1" connectable="0" parent="1">
          <mxGeometry x="1120" y="-1583" width="230" height="270" as="geometry" />
        </mxCell>
        <mxCell id="34cOvowa2TqDfqdvLT65-58" value="" style="shape=cube;whiteSpace=wrap;html=1;boundedLbl=1;backgroundOutline=1;darkOpacity=0.05;darkOpacity2=0.1;" vertex="1" parent="34cOvowa2TqDfqdvLT65-57">
          <mxGeometry width="130" height="190" as="geometry" />
        </mxCell>
        <mxCell id="34cOvowa2TqDfqdvLT65-59" value="" style="shape=cube;whiteSpace=wrap;html=1;boundedLbl=1;backgroundOutline=1;darkOpacity=0.05;darkOpacity2=0.1;" vertex="1" parent="34cOvowa2TqDfqdvLT65-57">
          <mxGeometry x="50" y="40" width="130" height="190" as="geometry" />
        </mxCell>
        <mxCell id="34cOvowa2TqDfqdvLT65-60" value="&lt;b&gt;&lt;font style=&quot;font-size: 16px&quot;&gt;Worker&lt;/font&gt;&lt;/b&gt;" style="shape=cube;whiteSpace=wrap;html=1;boundedLbl=1;backgroundOutline=1;darkOpacity=0.05;darkOpacity2=0.1;" vertex="1" parent="34cOvowa2TqDfqdvLT65-57">
          <mxGeometry x="100" y="80" width="130" height="190" as="geometry" />
        </mxCell>
        <mxCell id="34cOvowa2TqDfqdvLT65-61" value="" style="group" vertex="1" connectable="0" parent="1">
          <mxGeometry x="1380" y="-1590" width="230" height="270" as="geometry" />
        </mxCell>
        <mxCell id="34cOvowa2TqDfqdvLT65-62" value="" style="shape=cube;whiteSpace=wrap;html=1;boundedLbl=1;backgroundOutline=1;darkOpacity=0.05;darkOpacity2=0.1;" vertex="1" parent="34cOvowa2TqDfqdvLT65-61">
          <mxGeometry width="130" height="190" as="geometry" />
        </mxCell>
        <mxCell id="34cOvowa2TqDfqdvLT65-63" value="" style="shape=cube;whiteSpace=wrap;html=1;boundedLbl=1;backgroundOutline=1;darkOpacity=0.05;darkOpacity2=0.1;" vertex="1" parent="34cOvowa2TqDfqdvLT65-61">
          <mxGeometry x="50" y="40" width="130" height="190" as="geometry" />
        </mxCell>
        <mxCell id="34cOvowa2TqDfqdvLT65-64" value="&lt;font style=&quot;font-size: 16px&quot;&gt;&lt;b&gt;Infra,Router&lt;/b&gt;&lt;/font&gt;" style="shape=cube;whiteSpace=wrap;html=1;boundedLbl=1;backgroundOutline=1;darkOpacity=0.05;darkOpacity2=0.1;" vertex="1" parent="34cOvowa2TqDfqdvLT65-61">
          <mxGeometry x="100" y="80" width="130" height="190" as="geometry" />
        </mxCell>
        <mxCell id="34cOvowa2TqDfqdvLT65-72" value="" style="group" vertex="1" connectable="0" parent="1">
          <mxGeometry x="110" y="-2010" width="430" height="330" as="geometry" />
        </mxCell>
        <mxCell id="34cOvowa2TqDfqdvLT65-7" value="" style="whiteSpace=wrap;html=1;aspect=fixed;" vertex="1" parent="34cOvowa2TqDfqdvLT65-72">
          <mxGeometry x="100" width="330" height="330" as="geometry" />
        </mxCell>
        <mxCell id="34cOvowa2TqDfqdvLT65-8" value="&lt;b&gt;&lt;font style=&quot;font-size: 18px&quot;&gt;Bastion host&lt;/font&gt;&lt;/b&gt;" style="text;html=1;strokeColor=none;fillColor=none;align=center;verticalAlign=middle;whiteSpace=wrap;rounded=0;" vertex="1" parent="34cOvowa2TqDfqdvLT65-72">
          <mxGeometry x="185" y="30" width="155" height="20" as="geometry" />
        </mxCell>
        <mxCell id="34cOvowa2TqDfqdvLT65-67" value="TERMINAL" style="strokeWidth=1;shadow=0;dashed=0;align=center;html=1;shape=mxgraph.mockup.containers.window;align=left;verticalAlign=top;spacingLeft=8;strokeColor2=#008cff;strokeColor3=#c4c4c4;fontColor=#666666;mainText=;fontSize=17;labelBackgroundColor=none;" vertex="1" parent="34cOvowa2TqDfqdvLT65-72">
          <mxGeometry x="130" y="100" width="280" height="210" as="geometry" />
        </mxCell>
        <mxCell id="34cOvowa2TqDfqdvLT65-70" value="" style="verticalLabelPosition=bottom;shadow=0;dashed=0;align=center;html=1;verticalAlign=top;strokeWidth=1;shape=mxgraph.mockup.containers.userMale;strokeColor=#666666;strokeColor2=#008cff;" vertex="1" parent="34cOvowa2TqDfqdvLT65-72">
          <mxGeometry x="-20" y="130" width="100" height="100" as="geometry" />
        </mxCell>
        <mxCell id="34cOvowa2TqDfqdvLT65-71" value="&lt;pre style=&quot;font-size: 8px&quot;&gt;&lt;code&gt;ansible-playbook site.yaml -e @cluster_vars.yaml&lt;/code&gt;&lt;/pre&gt;" style="text;html=1;strokeColor=none;fillColor=none;align=center;verticalAlign=middle;whiteSpace=wrap;rounded=0;" vertex="1" parent="34cOvowa2TqDfqdvLT65-72">
          <mxGeometry x="185" y="180" width="155" height="30" as="geometry" />
        </mxCell>
        <mxCell id="34cOvowa2TqDfqdvLT65-73" value="" style="endArrow=classic;html=1;" edge="1" parent="1">
          <mxGeometry width="50" height="50" relative="1" as="geometry">
            <mxPoint x="560" y="-1780" as="sourcePoint" />
            <mxPoint x="790" y="-1780" as="targetPoint" />
          </mxGeometry>
        </mxCell>
        <mxCell id="34cOvowa2TqDfqdvLT65-77" value="&lt;b&gt;&lt;font style=&quot;font-size: 16px&quot;&gt;UTILITY&lt;/font&gt;&lt;/b&gt;" style="shape=cube;whiteSpace=wrap;html=1;boundedLbl=1;backgroundOutline=1;darkOpacity=0.05;darkOpacity2=0.1;" vertex="1" parent="1">
          <mxGeometry x="60" y="-702" width="130" height="190" as="geometry" />
        </mxCell>
        <mxCell id="34cOvowa2TqDfqdvLT65-92" value="&lt;ul style=&quot;font-size: 14px&quot;&gt;&lt;li style=&quot;font-size: 14px&quot;&gt;&lt;font style=&quot;font-size: 14px&quot;&gt;DHCP&lt;/font&gt; &lt;/li&gt;&lt;li&gt;LB&lt;/li&gt;&lt;li&gt;DNS&lt;/li&gt;&lt;li&gt;Web server&lt;/li&gt;&lt;/ul&gt;" style="text;html=1;strokeColor=none;fillColor=none;align=left;verticalAlign=middle;whiteSpace=wrap;rounded=0;" vertex="1" parent="1">
          <mxGeometry x="65" y="-580" width="120" height="60" as="geometry" />
        </mxCell>
        <mxCell id="34cOvowa2TqDfqdvLT65-93" value="&lt;b&gt;&lt;font style=&quot;font-size: 16px&quot;&gt;BOOTSTRAP&lt;/font&gt;&lt;/b&gt;" style="shape=cube;whiteSpace=wrap;html=1;boundedLbl=1;backgroundOutline=1;darkOpacity=0.05;darkOpacity2=0.1;" vertex="1" parent="1">
          <mxGeometry x="351" y="-702" width="130" height="190" as="geometry" />
        </mxCell>
        <mxCell id="34cOvowa2TqDfqdvLT65-95" value="" style="endArrow=classic;html=1;entryX=0.038;entryY=0.484;entryDx=0;entryDy=0;entryPerimeter=0;" edge="1" parent="1" source="34cOvowa2TqDfqdvLT65-77" target="34cOvowa2TqDfqdvLT65-93">
          <mxGeometry width="50" height="50" relative="1" as="geometry">
            <mxPoint x="150" y="-320" as="sourcePoint" />
            <mxPoint x="330" y="-600" as="targetPoint" />
          </mxGeometry>
        </mxCell>
        <mxCell id="34cOvowa2TqDfqdvLT65-96" value="&lt;font style=&quot;font-size: 18px&quot;&gt;Ignition file from&amp;nbsp; Web Server&lt;br&gt;&lt;/font&gt;" style="text;html=1;strokeColor=none;fillColor=none;align=center;verticalAlign=middle;whiteSpace=wrap;rounded=0;" vertex="1" parent="1">
          <mxGeometry x="202" y="-617" width="138" height="20" as="geometry" />
        </mxCell>
        <mxCell id="34cOvowa2TqDfqdvLT65-102" value="" style="group" vertex="1" connectable="0" parent="1">
          <mxGeometry x="610" y="-702" width="230" height="270" as="geometry" />
        </mxCell>
        <mxCell id="34cOvowa2TqDfqdvLT65-103" value="" style="shape=cube;whiteSpace=wrap;html=1;boundedLbl=1;backgroundOutline=1;darkOpacity=0.05;darkOpacity2=0.1;" vertex="1" parent="34cOvowa2TqDfqdvLT65-102">
          <mxGeometry width="130" height="190" as="geometry" />
        </mxCell>
        <mxCell id="34cOvowa2TqDfqdvLT65-104" value="" style="shape=cube;whiteSpace=wrap;html=1;boundedLbl=1;backgroundOutline=1;darkOpacity=0.05;darkOpacity2=0.1;" vertex="1" parent="34cOvowa2TqDfqdvLT65-102">
          <mxGeometry x="50" y="40" width="130" height="190" as="geometry" />
        </mxCell>
        <mxCell id="34cOvowa2TqDfqdvLT65-105" value="&lt;b&gt;&lt;font style=&quot;font-size: 16px&quot;&gt;Master&lt;/font&gt;&lt;/b&gt;" style="shape=cube;whiteSpace=wrap;html=1;boundedLbl=1;backgroundOutline=1;darkOpacity=0.05;darkOpacity2=0.1;" vertex="1" parent="34cOvowa2TqDfqdvLT65-102">
          <mxGeometry x="100" y="80" width="130" height="190" as="geometry" />
        </mxCell>
        <mxCell id="34cOvowa2TqDfqdvLT65-108" value="" style="endArrow=classic;html=1;" edge="1" parent="1">
          <mxGeometry width="50" height="50" relative="1" as="geometry">
            <mxPoint x="480" y="-610" as="sourcePoint" />
            <mxPoint x="610" y="-610" as="targetPoint" />
          </mxGeometry>
        </mxCell>
        <mxCell id="34cOvowa2TqDfqdvLT65-110" value="" style="edgeStyle=orthogonalEdgeStyle;rounded=0;orthogonalLoop=1;jettySize=auto;html=1;" edge="1" parent="1">
          <mxGeometry relative="1" as="geometry">
            <mxPoint x="658" y="-474" as="sourcePoint" />
            <mxPoint x="658" y="-394" as="targetPoint" />
            <Array as="points">
              <mxPoint x="658" y="-494" />
            </Array>
          </mxGeometry>
        </mxCell>
        <mxCell id="34cOvowa2TqDfqdvLT65-111" value="" style="group" vertex="1" connectable="0" parent="1">
          <mxGeometry x="610" y="-392" width="230" height="270" as="geometry" />
        </mxCell>
        <mxCell id="34cOvowa2TqDfqdvLT65-112" value="" style="shape=cube;whiteSpace=wrap;html=1;boundedLbl=1;backgroundOutline=1;darkOpacity=0.05;darkOpacity2=0.1;" vertex="1" parent="34cOvowa2TqDfqdvLT65-111">
          <mxGeometry width="130" height="190" as="geometry" />
        </mxCell>
        <mxCell id="34cOvowa2TqDfqdvLT65-113" value="" style="shape=cube;whiteSpace=wrap;html=1;boundedLbl=1;backgroundOutline=1;darkOpacity=0.05;darkOpacity2=0.1;" vertex="1" parent="34cOvowa2TqDfqdvLT65-111">
          <mxGeometry x="50" y="40" width="130" height="190" as="geometry" />
        </mxCell>
        <mxCell id="34cOvowa2TqDfqdvLT65-114" value="&lt;b&gt;&lt;font style=&quot;font-size: 16px&quot;&gt;Worker&lt;/font&gt;&lt;/b&gt;" style="shape=cube;whiteSpace=wrap;html=1;boundedLbl=1;backgroundOutline=1;darkOpacity=0.05;darkOpacity2=0.1;" vertex="1" parent="34cOvowa2TqDfqdvLT65-111">
          <mxGeometry x="100" y="80" width="130" height="190" as="geometry" />
        </mxCell>
        <mxCell id="34cOvowa2TqDfqdvLT65-125" value="&lt;font style=&quot;font-size: 17px&quot;&gt;Temporary &lt;/font&gt;" style="text;html=1;strokeColor=none;fillColor=none;align=center;verticalAlign=middle;whiteSpace=wrap;rounded=0;" vertex="1" parent="1">
          <mxGeometry x="415" y="-560" width="40" height="20" as="geometry" />
        </mxCell>
        <mxCell id="34cOvowa2TqDfqdvLT65-135" value="" style="endArrow=classic;html=1;dashed=1;exitX=1;exitY=0.5;exitDx=0;exitDy=0;" edge="1" parent="1">
          <mxGeometry width="50" height="50" relative="1" as="geometry">
            <mxPoint x="196" y="-550" as="sourcePoint" />
            <mxPoint x="351" y="-550" as="targetPoint" />
          </mxGeometry>
        </mxCell>
        <mxCell id="34cOvowa2TqDfqdvLT65-136" value="" style="endArrow=classic;html=1;dashed=1;" edge="1" parent="1">
          <mxGeometry width="50" height="50" relative="1" as="geometry">
            <mxPoint x="117" y="-502" as="sourcePoint" />
            <mxPoint x="637" y="-502" as="targetPoint" />
          </mxGeometry>
        </mxCell>
        <mxCell id="34cOvowa2TqDfqdvLT65-137" value="" style="endArrow=classic;html=1;dashed=1;entryX=-0.003;entryY=0.679;entryDx=0;entryDy=0;entryPerimeter=0;" edge="1" parent="1" target="34cOvowa2TqDfqdvLT65-112">
          <mxGeometry width="50" height="50" relative="1" as="geometry">
            <mxPoint x="100" y="-510" as="sourcePoint" />
            <mxPoint x="591.3600000000001" y="-278" as="targetPoint" />
          </mxGeometry>
        </mxCell>
        <mxCell id="34cOvowa2TqDfqdvLT65-139" value="&lt;font style=&quot;font-size: 17px&quot;&gt;&lt;b&gt;IP address from DHCP&lt;/b&gt;&lt;/font&gt;" style="text;html=1;strokeColor=none;fillColor=none;align=center;verticalAlign=middle;whiteSpace=wrap;rounded=0;" vertex="1" parent="1">
          <mxGeometry x="202" y="-560" width="138" height="20" as="geometry" />
        </mxCell>
        <mxCell id="34cOvowa2TqDfqdvLT65-140" value="&lt;font style=&quot;font-size: 17px&quot;&gt;&lt;b&gt;IP address from DHCP&lt;/b&gt;&lt;/font&gt;" style="text;html=1;strokeColor=none;fillColor=none;align=center;verticalAlign=middle;whiteSpace=wrap;rounded=0;" vertex="1" parent="1">
          <mxGeometry x="490" y="-550" width="138" height="100" as="geometry" />
        </mxCell>
        <mxCell id="34cOvowa2TqDfqdvLT65-141" value="&lt;font style=&quot;font-size: 17px&quot;&gt;&lt;b&gt;IP address from DHCP&lt;/b&gt;&lt;/font&gt;" style="text;html=1;strokeColor=none;fillColor=none;align=center;verticalAlign=middle;whiteSpace=wrap;rounded=0;" vertex="1" parent="1">
          <mxGeometry x="370" y="-406" width="180" height="80" as="geometry" />
        </mxCell>
        <mxCell id="34cOvowa2TqDfqdvLT65-143" value="" style="endArrow=none;html=1;fillColor=#e3c800;strokeColor=#B09500;" edge="1" parent="1">
          <mxGeometry width="50" height="50" relative="1" as="geometry">
            <mxPoint x="30" y="-760" as="sourcePoint" />
            <mxPoint x="850" y="-760" as="targetPoint" />
          </mxGeometry>
        </mxCell>
        <mxCell id="34cOvowa2TqDfqdvLT65-145" value="" style="endArrow=none;html=1;fillColor=#e3c800;strokeColor=#B09500;" edge="1" parent="1">
          <mxGeometry width="50" height="50" relative="1" as="geometry">
            <mxPoint x="30" y="-30" as="sourcePoint" />
            <mxPoint x="850" y="-30" as="targetPoint" />
          </mxGeometry>
        </mxCell>
        <mxCell id="34cOvowa2TqDfqdvLT65-151" value="" style="group" vertex="1" connectable="0" parent="1">
          <mxGeometry x="72" y="-960" width="130" height="120" as="geometry" />
        </mxCell>
        <mxCell id="34cOvowa2TqDfqdvLT65-147" value="" style="shape=image;imageAspect=0;aspect=fixed;verticalLabelPosition=bottom;verticalAlign=top;strokeColor=#000000;image=data:image/png,iVBORw0KGgoAAAANSUhEUgAAAQAAAAEACAYAAABccqhmAAAABmJLR0QAAAAAAAD5Q7t/AAAACXBIWXMAAA3XAAAN1wFCKJt4AAAAB3RJTUUH4wgBDjUVEbrkfwAAGE9JREFUeNrtnWt0VOW5x//Pnkkg3L1gamZnZsAAmdlA0dSqtbXY0nMUkmPtOvScD+JZtV12qQsSSJAqKMFLBbklWo/ai12irnUWulaXJqIuWrG11R6UaiFhEgySTCCFA2Jp5JbM7Od8CFRtqQUylz3v/H+fk5nZz36f337fvf97bwExnpJgZIaIXLuna3vt6fx9edPCfwGSs/qGFtz9/jdWHGIFzcViCcwlML58oh1ymi2RjQJET/f/RLRAROYNOZ7YGWmqrcb62T5WkwIgOUI4PG2MHY4sl6S1FdBZg/io8yBoiAwr3ew01X6ZlaUAiMf3ZyAYuTGhfe1QWQRgSGo+Vi5xBa9HmmqbIi/WhlhmCoB4DDtc/lU7FN0iIk8CuCAtXyKohOr2aFNdvb1+fhGrTgGQbK/zA1NtO+Ssg1qbAExL/zfKMBVdOmKYtSPStOBGKIR7gQIgGaakpGKYHY7Wiz+5A9A5QGYbUQAbIk9GNtRtcpoWfJ57hAIgmWr+oFNlFRzdDsVSQLM7FVf9qivyh0hT7bqpr9RdwL1DAZB0NX4ockkgFH3dEn0BQMhT40gwp79f2yPNdYuc9fWF3FsUAEnZdH/i+XY42mjB2iyAly/HjQF0uTusd1ukacFM7jkKgAyCioqKAjsYqbYK/DuhmAdorgRyJkLkxUhz7UZnQ22Ue5ICIGe8zo/M2Hfg6LsQaQAwKkc3Y4br4t3ypgWNZRvmjuJepQDIP2v8cZMm2aHoi5bIRpxBfNfDFIjIvAK3kLFiCoD8I4LBKefY4chyy/VtBWDi+vl8xoopAHKKfRAIRm50Jdl2Ir5r+Bl0ucQV/CbSXLeesWIKIK+xw5On26HIO2mN73rUAoDOPhkrDm+qH8rRQAHkzzr/osmlA/FddxMgU/O3EgOx4qGHe9+LNC24kSODAjC78U/Ed62EezK+S/CJWHFzLWPFFICZYzwQjM62Co7GBuK74JT31ExnrJgCMIpgsLyiNBR9XQTrAQRZkdMYkwOx4jbGiimAnCUUilxoh6OPu2JtVuBKVuSMOQfQ5W5R71bGiimAnOFkfDcJaYPiZtZ40CcIJp2MFU9uromwIBSAZykJOlX7DhyN5Xh816vMSML3R8aKKQDvNX54Srkdim44cZvuRaxI2jgZK24rb669GfX1HL8UQPYYiO9GGy1NbgNwLSuSMS4U4PHIF3o3T9qwkOdXKIBMM91vB52bXXHbB27ThZ81yQoVluu+HmmuW+80LeIVFgog/QRCztV2aN8WiD4O6FhWJOsIoLNd6Y8xVkwBpG+dfyK+K9BX8zu+61kPDFPRpUVHencwVkwBpIzi4qnDGd/NIRSlEHky2lz76qTn6yhqCuDsDymBYHR2wZAE47s56QFcbfn0nUhT7bqyDXO5VKMATp/S0slfsEOR34pgPQSlrEgOj2/BnAK3kE8rpgD+ObY9MWCHok+p5W4G5EvmHRRP9y9dNWzbzznxtOItkea6GRzpFMCncByn0A5GquHzxwDcABj1uisVwbNJS2853X+IbRn1MlT/C8A+w3b1ZEA3RppqmyZvWMjAlmED/awoCTpVlmgDgPEG7t4trqK6J976u7P576mv1A1P9GGhiv4AKXvTsGfoV9VHE77+uzpmPvwXCiDfGj88pdxykw0Q/KuBm/cnqNTvjrf+FIA72A+LNC2cANH7AZ1tYq0UqG97e+RPUV/vUgDGr/Odc+HXpVDcCvMSfP0QPDrU33dXR0dHyo9qA+tnXTswlTaOLa5lVbfPXPk7CsBIpvvt4P6bBo5kON+87dNmcX013d0tO9P5LRVv31xweO/I7whgYh0VkOcs9dW1Vq2IUwCGEAhGvy6WrIXqFAN3YTug83d3bX8pk9/qvDz/3GS/LBWR2wAY9rIPPSJqrTwyYsTyzqvrj1EAuTvdLxO//lAVJq5dP4TKitEjsba1tbUvWz/CeXHhNFfdRgBXGdgd3XB1SaxqzToKIIcoLp46vKAosRAKE89eu4A8kyg4Xru3o2O/V35UeVNdlYg2AhhnYJNsSialpv26VVspAI9vTyAYmSMiKwB8zkC3bYJl1eze1eLJgWivn180cphvHqCLAYw0TryKZ/p9fbUdMx/eTwF4jNJS51K10AjoFca1vaJboUv2xGM5MRWd2DQ/4IP1AMS4UNWJpReWFY8Y+chrV9cnKICsr/MnBuAreABQEwfbEQhW+nFkeWdnZ86djHKa5n/RhdUIweUGTp3bYGHB9pmrX6IAstL4dhGs0fMgRk43VQTPJS2p63m/NbcvRykk0rxgDkxdlimak+JW76hc+z4FkCEG4rtoBNS4E06Avu3CV93T1fKGSVtleKy4T1Ufy8VYcU4JIBB2pomrjRADLzmlOL7rVRgrpgDOYrp/Mr4rtwFqWOgEfRA8lq74rleJNi34ug68P8HAWLG8rXCr2yrXvEEBDIKKioqCffuPfcfk+K6l/up4fNv7yEOmb6r37z3cexNjxRTAKdb5kRnWwBHCMXDst0Fk/u7O1pdBDI8V47CorPJqrNhzArDtyATxy/3mxnd12e548SPAawm2/qeZ3FwTceFbqzDwFm2Pxoo9I4CxY50RQ4ZrnaHx3QQETyT8fUu8FN/1KibHilXxKiy3pm3W2m0UwABWIBi5ASIPClBs4Hh+FUm3Zvfutm1s7TOYCZodK04I8ESf1bck27HirArAHud8Ea42AuYlxQDsVMUde+Lbn2U7nz2Tnr+9xLKSyxkrNkgAhsd3D0OwKlfju17FeaH2UtdCIwDj7vUQoE3End86a+3LRgvgE/HdJQBGmLa8E8FzSZ9V27OzpZstm44KM1acswIoCTpVIvqQAGEDR6aR8V2vkg+xYnX9S9qve7A35wVQEopebAkaofiKgWOxByrLTI/venZZ8Pz8Mtfn+6GhseIeBZalO1acNgEEAuXnSYF1t8nx3WNDkksOtLf3shWzC2PFHhLAQHz3yK0Qaxmgow2c7ud1fNer5EOs2Jdwa1u+uabbswIwPb4rIjXdna2vsN28S9mGuWP97pB7Bfo9mBUr/kCB2rbK1U96TgCB8eUTJSmrAak0cEwdhOo9jO/mFgbFitMaGhqUAMaPHz+6P1FUr6K3ASgwbAwlIPhvy/XVx+PbPmRL5Sa5HCvORGx4UAIIBKOzRbDewHHzKyTd+YzvmoGzvr7QLeq9BYJ7kRux4g6B3rm9ck3aU6QUwN8UXhV3Mr5rJjkQK874rcMUwInCQ7BqqL/vgY6OjuNsFcNnBN6LFSsUT1uWdXvrrJV7M/nF+S4ABeRpv+D2zs7WvWyNPMIjsWIVvAVXqtuqVr2Zje/PXwEI3lJ1q/d0tb3Jbshfshgr7oHqHbHKNU9BoNlrg/wTQI+q3rEnHntqYAZASEZjxUcBfchN+u/PRNafAvh4U48q3FWJYwUr9u3bephDnpxSBBvqvua62gAg9a+SVzS7KvPa/23VrlQN6rKyspGDeZq0lScLvmYfEs6ertjdbH7yWbTOXPVq8fCRlyjwfQAHUtSnMQWuiVWtrkpV8weD5RWloejrR/sKBxV0MloACsRE5JrdXbGqrq72XRze5HR47er6RFvl6h9bfneSqj4EIHmWH3UQiprYka4pbZWrUxIhD4UiF9rh6OOuWJsVuHKwn+c3dB8ehOo9e+KxHw1i55F8nw1cs/YggOrJzTWPnWGsuF+AnycUi3dUrU7JLOLkTXZJyD1QjErVNpomgAQET7h9icU9PTsOcAiTVNBS2RADcE15U12VJdqgwPjP+PNfAjJ/e+WqllR9f0nQqdp34OhaiFyU6m0zSQC/EldrurtjLRyyJB20Va1qctbXv6KnjhW/J9DFqYzvloSnlFuaXAPotenaptwXgOI9BRYzvksysiz4dn0fgMZJz9/+rM+XXKrAf4rK2j7f8Qc6Zj6ckhRpMDjlHNdK1kOTt6a7R3NZAAPx3QLGd0nmab/uwR4A3y/bMHdeqhofmO63g/tvcsW9D4qxmdiOXBSAAvJ0gSULd+1q2cehSLJJqpo/EHK+JrK/AapTMvn7c0wA+oalOi8eb9vCoUdMoLR08kUq7mpAr8tGLjWnBGCptSgeb2Xzk5ynuHjq8IKixEJVdxGAodn6HX7uCkIyigSCkTkiiRXQ7L/chAIgJGPTfedStdAIqGdeb0YBEJL2xp9UopZ/uXrwXZgUACFpwnGcwkO97i0qci+gnnwWIQVASBooCTpVhz5CI0Q8/TRiCoCQFBIOO59LKP4H0K/mwu+1uMsISR2ui7JcaX4KgJA8hwIghAIghFAAhBAKgBBCARBCKABCCAVACDEOJgFJypj2i5oxfX6rwrXkUlF8HoANoFhEn9s+a82drBAFQNLAxKb5AZ/4IoOfD7ofxWau+f2Z/Ev5SzVhcX3XQ/X645AvAfDJ3zzZRhVF3EsUAEkTPsu6Fqo/GfQHubINwNTT+VOnqfbLrsg8JPVbAHweu8uVUAAkHZQ31U0XcVe7wCV8uTIFQPKl8Qem+muh+k0e7SkAkkdEmxfM1qQ8DuAcVoMCIHlCeFP90KIjHz2uqjeyGhQAySOm/aJmzPHDvc8DuIrVoABIHhF5uebC4wnfRgAOq2E2TAKST1G2Ye4o9PteZPNTACT/GFqgQ16A4GKWgksAkn9MgOoEloEzAEIIBUAIoQAIIRQAIYQCIIQYAq8CkMHQCWAzoFsBaydEP3DhfihqqaU6xhUZLZAJKtrBUlEAxAzeA+RnPiReaKlsiLEcFADJD95UterbKlduhPBBABQAyQ8E3QKZu33WqudZDAqA5BdPHi/0V7//jRWHWAoKgOQPSUAWxypXrWApKACSXxyH6rdiVas3sBTmwxwA+ST9IvIfsao1bH4KgOQhbTzZRwEQQigAQggFQAihAAghFAAhhAIghFAAhBAKgBBCARBCKABCCAVACKEACCEUACGEAiCEUACEEAqAEEIBEEIoAEIIBUAIoQAIIRQAIYQCIIRQAIQQCoAQQgEQQigAQggFQAihAAghFAAhhAIghFAAhBAKgBBCARBCKABCCAVACAVACKEACCEUACGEAiCEUACEEAqAEEIBEEIoAEIIBUAIyWX8LEHuk3Tdl3zi+8bgDwfuR6wmBUByjB1Va/cA2MNKEC4BCCEUACGEAiCEUACEEAqAEEIBEEIoAEIoAJaAEAqAEEIBEEIoAI/iChpKgs6V3G3Ei5QEnStdQQMFkDa0whL9rR2KNIXD5WEOOeIFbHtiwA456yzR1wGtoADSjlQm1Gq1w5HlY8c6IzgESXYa3y6yg84i+PwxQOcAEC4BMscwqCwaMgxtgWDkxlwsPsnp6X4VfKNbIbocwEieA8jesiAgIk/aoeibdjh6GYcmSWvjh6IX28Hory3RFwAdl+vbY9JVgMugeMMOOevGjZtczKFKUjvdd861w9FGC/IWBFeZsl2mXQa0AJ3T77oddjhaX1ZWNoRDlwyGioqKAjsYqYZPd0IxD1CfYQ1jJCOgWHqsr3BbIBidzWFMzm6dH5mx78DRdyDSAGCMidtodhBIMEEE60tD0Y3BYNThkCanN92PTLBDkSZLZCMAo8dNXiQBFZjhCt6xw9HGcHjaGA5xcirGjnVG2OFoPXyyDZDKfNjmfIoCF0AxL6F9O+1gpBqAj0OenOyDQDByY+Ew7YBiKYC8OXeUj/cCnAuRBjsUfat0XOQqjv08n+6Ho5fZoegbIvKkAHl39Sifbwa6WF35tR2KNIVCk8axFfKLQGCqbYecdVC8CSBv8yO8GxBSmYS/1Q5Hlp8/adJI1sNsSkoqhtlBZ5H4Ezkb36UAUo4WQWXR0GP+GGPFBjd/0KmSgqMn47u8h4QC+DsRDMSKw9H/DYQjl7MehjR+KHKJHY7+xhJ9QYAwK/IxgzoTPrEs+N7hw/0fQKwrAAw1aYkokO+OGnPBReeec8Gbf/7zfr4zLyfX+eXnjT7vguUC6ycwr/EPQ/BAUUHfzw4ePJg86wVwqgotBdbdULnNtKjkiUKvGurve6Cjo+M428r7VFRUFOzbf+RWiLUM0NGmTVMBedovuL2zs3XvYD8spWvdklD0YkvQCMVXDBxXHaq4c098+7NsMS+v8yMzLJFGAFHzVqjYrJZW7+mM/T5VHynp2QlOlYg+ZOh661fiak13d6yF7eah6f748omS9K0BdJZ5Wyd7VN0798RjTw3MAFL4yWkzcUnFMMt/bC5El8C8M64JCJ5w+xKLe3p2HGD7ZY9weNqYBI7/ACrzARQa1vhHIe5Dx4a49x9ob+9Nyzek3cyBqbb4kz8E9AaYd3ntIFTv2R2P/QhAku2YUaxAMHKDiKwEcIF5m6fNPrjzurrad6VVMZnaHDscvQyKRhiYulIgZonM7+5sfYV9mYmxNHk61G0A8HkDN+9dsbS6e1fsNxmZY2TD2hB50MzctTZb6q+Ox7e9zzblbDIXZpNZKeIn1m01MO/Oqz4IHjs2JLkkXeu2fKOkpGKYVXj0dqjcDmiRYZvXD8HPs3U+KasWHThzK6sNvfe6ByrLdsdbfwrAZRuf3fgMBKP/LoKVAEIGbl/Wryh5Yhp14tptA4x8+oq+7cJX3dPV8gb7+fQJBssrVKxGBcx7E5TiPQUWeyFT4pl1lOnpLRE8l/RZtT07W7rZ3v+YUChyYVKkHirfZao0jwTw12VBHsSK/TiyvLOz8xjb/VQHALkHwCjjjvmQpwssWbhrV8s+T62xvFoxw2PFO1VxB2PFHy8BReQhASIGTvdTHt/NCwF8PDiMjhW/Csuav3tXy9a8bPxxkyZZrm8NgJnmbV364rt5JQBg4CWMsEbPMzlWnPD3Ldnb0bE/Hxo/GJxyjmslFpkc3z1+2Lpv//5Wz99GnlNhCtueGICv4AFDgyAfQnXZ7njxI8BrCUN7/0R811oF6FjzNi8z8d28FcBfRWBwrBhAG4AFu7u2v2TSRgVCztUCtwGQqQbus4zGd/NeAJ88mpgcKxbXV9Pd3bIzp9f5F00utRJ6/4kHcJpGzt8MlvPTaMNjxf0QPDrU33dXR0fHX3LphxcXTx1eUJRYCMUimPW4uJP75ecm3A5uzDratiMT4MMaQ2PFf4JKfY7Eik/Gd1cBCJq2IwT4pShq4vHtrYZsj1mYHSuWLa6iuife+jsv/rrS0slfUCvZCMiXzFuReSe+SwH8E/IiVmxJXc/7rXFvNP6kEvX5lkLxPZj3qHmjHwpr9AswDI8VH4FgZTZjxY7jFB7qdW8xNL7rAvKMF+O7FMCZLgtMjhUruhW6ZE88ti6zSy2nyhJtADDewJp6Or5LAQxi0JobK9bXYPmq0x0rLglPKbc0uRbANQa2Q07EdymAQWB4rNgF5Jl+v69u386t/5faujnnwq9LobgVgN+wNsip+C4FkJIBbXqsWFaMHom1ra2tfYP7qOl+O7j/JgjuY3yXAjBPBOOcL8LVh2BkrFjaAXfB7q7YhrP570DI+ZoIGqA6xcBd/45YWpOL8V0KIPUYHSseCK9IdTzeuv00p/tl4tcfqmK2gfua73KgAE7N2LHOiCHDtQ6KHyAPY8V5EN991I/CpZ2d7/6Zo50C+IwjoNGx4gNQve9vjoASCEbmiMgKAJ8zcwZkTnyXAsgQJseKBfiDqFSr4rhaaAT0CuN2oKHxXQoggziOU/iXj3SuQu4y813zJo4DOSTQe0eNkIcHfxWEAiAwPlZsCnkR36UAsrksMPtpxbk8l8mb+C4F4InzA0Y/rTiXhnDexXdTCaeyZ0nvof07Ro8c8mPI0F4ILodxT7f1fOMfheia40fk23v/tP0t1oMzgKxheKzYi/P9Zr/o3M7Otk7WggLwjgiMjhV7AsZ3KQDPY/jTirMC47s8B5A789PeQwf+OLTwgsf8hegHcAWMu302Y/RD8IhfCq+Pd7X8GjzJxxlA7p0fMDpWnM6ByfguBWAOZj+tOJXzJ8Z3M7peZQkyQ0889svi84suhmoNIIdYkb/jIwiWDS3sm8Lm5wzAaBgr/hSM71IAebosCEUvthQNEFyVp9N9xncpAJJ/sWLGd70CLwN6gPyJFTO+yxkA+UzMjRUzvksBkNMXwUCsuBHA5Tm+KYzvUgDkLMnlWPEHUL2X8V2eAyCDmDfnYKy4H4JHCn3Hru/qfI/xXc4ASOrOD3g7Vsz4LgVAMoDnYsWM7+buGpMlyD08FCtmfJczAJJNshQrZnyXAiCeWhZkKlbM+C4FQLx8fiBdsWLGd02ElwENI/WxYsZ3OQMgOcngY8WM71IAJPdFcOaxYsZ3KQBiGKcTK2Z8l+cAiKF8VqyY8d085f8BFCPmJnJxCowAAAAASUVORK5CYII=;" vertex="1" parent="34cOvowa2TqDfqdvLT65-151">
          <mxGeometry x="22" width="86" height="86" as="geometry" />
        </mxCell>
        <mxCell id="34cOvowa2TqDfqdvLT65-150" value="&lt;font style=&quot;font-size: 17px&quot;&gt;&lt;b&gt;Nexus Repository&lt;/b&gt;&lt;/font&gt;" style="text;html=1;strokeColor=none;fillColor=none;align=center;verticalAlign=middle;whiteSpace=wrap;rounded=0;" vertex="1" parent="34cOvowa2TqDfqdvLT65-151">
          <mxGeometry y="100" width="130" height="20" as="geometry" />
        </mxCell>
        <mxCell id="34cOvowa2TqDfqdvLT65-152" value="" style="endArrow=classic;html=1;" edge="1" parent="34cOvowa2TqDfqdvLT65-151">
          <mxGeometry width="50" height="50" relative="1" as="geometry">
            <mxPoint x="68" y="136" as="sourcePoint" />
            <mxPoint x="68" y="250" as="targetPoint" />
          </mxGeometry>
        </mxCell>
        <mxCell id="34cOvowa2TqDfqdvLT65-154" value="" style="endArrow=classic;html=1;" edge="1" parent="1">
          <mxGeometry width="50" height="50" relative="1" as="geometry">
            <mxPoint x="150" y="-820" as="sourcePoint" />
            <mxPoint x="400" y="-706" as="targetPoint" />
          </mxGeometry>
        </mxCell>
      </root>
    </mxGraphModel>
  </diagram>
</mxfile>
